<mxfile host="app.diagrams.net" agent="Mozilla/5.0 (Windows NT 10.0; Win64; x64) AppleWebKit/537.36 (KHTML, like Gecko) Chrome/141.0.0.0 Safari/537.36 Edg/141.0.0.0" version="28.2.5">
  <diagram name="Page-1" id="Q-X4i90f5gJGItkRtRON">
    <mxGraphModel dx="2819" dy="1123" grid="1" gridSize="10" guides="1" tooltips="1" connect="1" arrows="1" fold="1" page="1" pageScale="1" pageWidth="850" pageHeight="1100" math="0" shadow="0">
      <root>
        <mxCell id="0" />
        <mxCell id="1" parent="0" />
        <mxCell id="haynSkEhvxOA1ZDdQ_Df-12" value="" style="edgeStyle=orthogonalEdgeStyle;rounded=0;orthogonalLoop=1;jettySize=auto;html=1;entryX=0.5;entryY=0;entryDx=0;entryDy=0;" edge="1" parent="1" source="haynSkEhvxOA1ZDdQ_Df-9" target="haynSkEhvxOA1ZDdQ_Df-2">
          <mxGeometry relative="1" as="geometry" />
        </mxCell>
        <mxCell id="haynSkEhvxOA1ZDdQ_Df-13" style="edgeStyle=orthogonalEdgeStyle;rounded=0;orthogonalLoop=1;jettySize=auto;html=1;exitX=0.5;exitY=1;exitDx=0;exitDy=0;entryX=0.5;entryY=0;entryDx=0;entryDy=0;" edge="1" parent="1" source="haynSkEhvxOA1ZDdQ_Df-9" target="haynSkEhvxOA1ZDdQ_Df-1">
          <mxGeometry relative="1" as="geometry" />
        </mxCell>
        <mxCell id="haynSkEhvxOA1ZDdQ_Df-9" value="" style="rounded=1;whiteSpace=wrap;html=1;container=0;fillColor=#fff2cc;strokeColor=#d6b656;" vertex="1" parent="1">
          <mxGeometry x="946" y="420" width="138" height="80" as="geometry" />
        </mxCell>
        <mxCell id="haynSkEhvxOA1ZDdQ_Df-20" style="edgeStyle=orthogonalEdgeStyle;rounded=0;orthogonalLoop=1;jettySize=auto;html=1;exitX=0.5;exitY=1;exitDx=0;exitDy=0;entryX=0.5;entryY=0;entryDx=0;entryDy=0;" edge="1" parent="1" source="VFdJ2LiCn9Vjgm2zUdr--1" target="VFdJ2LiCn9Vjgm2zUdr--2">
          <mxGeometry relative="1" as="geometry" />
        </mxCell>
        <mxCell id="haynSkEhvxOA1ZDdQ_Df-21" style="edgeStyle=orthogonalEdgeStyle;rounded=0;orthogonalLoop=1;jettySize=auto;html=1;exitX=0.5;exitY=1;exitDx=0;exitDy=0;entryX=0.5;entryY=0;entryDx=0;entryDy=0;" edge="1" parent="1" source="VFdJ2LiCn9Vjgm2zUdr--1" target="VFdJ2LiCn9Vjgm2zUdr--3">
          <mxGeometry relative="1" as="geometry" />
        </mxCell>
        <mxCell id="VFdJ2LiCn9Vjgm2zUdr--1" value="CLAIM" style="rounded=1;whiteSpace=wrap;html=1;" parent="1" vertex="1">
          <mxGeometry x="556" width="120" height="60" as="geometry" />
        </mxCell>
        <mxCell id="haynSkEhvxOA1ZDdQ_Df-14" style="edgeStyle=orthogonalEdgeStyle;rounded=0;orthogonalLoop=1;jettySize=auto;html=1;exitX=0.5;exitY=1;exitDx=0;exitDy=0;entryX=0.5;entryY=0;entryDx=0;entryDy=0;" edge="1" parent="1" source="VFdJ2LiCn9Vjgm2zUdr--2" target="94nnqqXkDgU59NGb26t2-1">
          <mxGeometry relative="1" as="geometry" />
        </mxCell>
        <mxCell id="VFdJ2LiCn9Vjgm2zUdr--2" value="TRADITIONAL" style="rounded=1;whiteSpace=wrap;html=1;" parent="1" vertex="1">
          <mxGeometry x="120" y="180" width="120" height="60" as="geometry" />
        </mxCell>
        <mxCell id="haynSkEhvxOA1ZDdQ_Df-10" value="" style="edgeStyle=orthogonalEdgeStyle;rounded=0;orthogonalLoop=1;jettySize=auto;html=1;entryX=0.5;entryY=0;entryDx=0;entryDy=0;" edge="1" parent="1" source="VFdJ2LiCn9Vjgm2zUdr--3" target="haynSkEhvxOA1ZDdQ_Df-7">
          <mxGeometry relative="1" as="geometry" />
        </mxCell>
        <mxCell id="VFdJ2LiCn9Vjgm2zUdr--3" value="HEALTHCARE" style="rounded=1;whiteSpace=wrap;html=1;" parent="1" vertex="1">
          <mxGeometry x="958.5" y="180" width="113" height="60" as="geometry" />
        </mxCell>
        <mxCell id="VFdJ2LiCn9Vjgm2zUdr--16" value="Submission" style="rounded=1;whiteSpace=wrap;html=1;" parent="1" vertex="1">
          <mxGeometry x="973.5" y="440" width="83" height="40" as="geometry" />
        </mxCell>
        <mxCell id="94nnqqXkDgU59NGb26t2-4" value="" style="group;fillColor=#fff2cc;strokeColor=#d6b656;" parent="1" vertex="1" connectable="0">
          <mxGeometry x="20" y="300" width="320" height="60" as="geometry" />
        </mxCell>
        <mxCell id="94nnqqXkDgU59NGb26t2-1" value="" style="rounded=1;whiteSpace=wrap;html=1;fillColor=none;shadow=0;" parent="94nnqqXkDgU59NGb26t2-4" vertex="1">
          <mxGeometry width="320" height="60" as="geometry" />
        </mxCell>
        <mxCell id="VFdJ2LiCn9Vjgm2zUdr--4" value="DEATH" style="rounded=1;whiteSpace=wrap;html=1;" parent="94nnqqXkDgU59NGb26t2-4" vertex="1">
          <mxGeometry x="10" y="10" width="60" height="40" as="geometry" />
        </mxCell>
        <mxCell id="VFdJ2LiCn9Vjgm2zUdr--5" value="TPD" style="rounded=1;whiteSpace=wrap;html=1;" parent="94nnqqXkDgU59NGb26t2-4" vertex="1">
          <mxGeometry x="90" y="10" width="60" height="40" as="geometry" />
        </mxCell>
        <mxCell id="VFdJ2LiCn9Vjgm2zUdr--6" value="CI" style="rounded=1;whiteSpace=wrap;html=1;" parent="94nnqqXkDgU59NGb26t2-4" vertex="1">
          <mxGeometry x="170" y="10" width="60" height="40" as="geometry" />
        </mxCell>
        <mxCell id="VFdJ2LiCn9Vjgm2zUdr--7" value="MED" style="rounded=1;whiteSpace=wrap;html=1;" parent="94nnqqXkDgU59NGb26t2-4" vertex="1">
          <mxGeometry x="250" y="10" width="60" height="40" as="geometry" />
        </mxCell>
        <mxCell id="D_RvipE9MuVCgFJKUWL3-5" value="" style="group" parent="1" vertex="1" connectable="0">
          <mxGeometry x="-100" y="430" width="570" height="110" as="geometry" />
        </mxCell>
        <mxCell id="D_RvipE9MuVCgFJKUWL3-3" value="" style="rounded=1;whiteSpace=wrap;html=1;fillColor=#b1ddf0;strokeColor=#10739e;" parent="D_RvipE9MuVCgFJKUWL3-5" vertex="1">
          <mxGeometry x="-10" y="-10" width="580" height="120" as="geometry" />
        </mxCell>
        <mxCell id="VFdJ2LiCn9Vjgm2zUdr--12" value="Submission" style="rounded=1;whiteSpace=wrap;html=1;" parent="D_RvipE9MuVCgFJKUWL3-5" vertex="1">
          <mxGeometry width="80" height="40" as="geometry" />
        </mxCell>
        <mxCell id="VFdJ2LiCn9Vjgm2zUdr--13" value="Confirmation" style="rounded=1;whiteSpace=wrap;html=1;" parent="D_RvipE9MuVCgFJKUWL3-5" vertex="1">
          <mxGeometry x="100" width="80" height="40" as="geometry" />
        </mxCell>
        <mxCell id="VFdJ2LiCn9Vjgm2zUdr--14" value="Evaluation" style="rounded=1;whiteSpace=wrap;html=1;" parent="D_RvipE9MuVCgFJKUWL3-5" vertex="1">
          <mxGeometry x="200" width="80" height="40" as="geometry" />
        </mxCell>
        <mxCell id="VFdJ2LiCn9Vjgm2zUdr--15" value="Calculation" style="rounded=1;whiteSpace=wrap;html=1;" parent="D_RvipE9MuVCgFJKUWL3-5" vertex="1">
          <mxGeometry x="290" width="80" height="40" as="geometry" />
        </mxCell>
        <mxCell id="VFdJ2LiCn9Vjgm2zUdr--17" value="Approval" style="rounded=1;whiteSpace=wrap;html=1;" parent="D_RvipE9MuVCgFJKUWL3-5" vertex="1">
          <mxGeometry x="385" width="80" height="40" as="geometry" />
        </mxCell>
        <mxCell id="VFdJ2LiCn9Vjgm2zUdr--18" value="Payment" style="rounded=1;whiteSpace=wrap;html=1;" parent="D_RvipE9MuVCgFJKUWL3-5" vertex="1">
          <mxGeometry x="480" width="80" height="40" as="geometry" />
        </mxCell>
        <mxCell id="VFdJ2LiCn9Vjgm2zUdr--23" value="Communication" style="rounded=1;whiteSpace=wrap;html=1;" parent="D_RvipE9MuVCgFJKUWL3-5" vertex="1">
          <mxGeometry x="240" y="60" width="80" height="40" as="geometry" />
        </mxCell>
        <mxCell id="D_RvipE9MuVCgFJKUWL3-17" value="" style="group" parent="1" vertex="1" connectable="0">
          <mxGeometry x="-110" y="600" width="580" height="80" as="geometry" />
        </mxCell>
        <mxCell id="D_RvipE9MuVCgFJKUWL3-6" value="" style="rounded=1;whiteSpace=wrap;html=1;fillColor=#fad7ac;strokeColor=#b46504;" parent="D_RvipE9MuVCgFJKUWL3-17" vertex="1">
          <mxGeometry width="580" height="80" as="geometry" />
        </mxCell>
        <mxCell id="VFdJ2LiCn9Vjgm2zUdr--10" value="FILENET" style="rounded=1;whiteSpace=wrap;html=1;" parent="D_RvipE9MuVCgFJKUWL3-17" vertex="1">
          <mxGeometry x="340" y="20" width="60" height="40" as="geometry" />
        </mxCell>
        <mxCell id="VFdJ2LiCn9Vjgm2zUdr--11" value="ZALO" style="rounded=1;whiteSpace=wrap;html=1;" parent="D_RvipE9MuVCgFJKUWL3-17" vertex="1">
          <mxGeometry x="20" y="20" width="60" height="40" as="geometry" />
        </mxCell>
        <mxCell id="VFdJ2LiCn9Vjgm2zUdr--19" value="PruOnline" style="rounded=1;whiteSpace=wrap;html=1;" parent="D_RvipE9MuVCgFJKUWL3-17" vertex="1">
          <mxGeometry x="100" y="20" width="60" height="40" as="geometry" />
        </mxCell>
        <mxCell id="VFdJ2LiCn9Vjgm2zUdr--20" value="P4O" style="rounded=1;whiteSpace=wrap;html=1;" parent="D_RvipE9MuVCgFJKUWL3-17" vertex="1">
          <mxGeometry x="180" y="20" width="60" height="40" as="geometry" />
        </mxCell>
        <mxCell id="VFdJ2LiCn9Vjgm2zUdr--21" value="RCS" style="rounded=1;whiteSpace=wrap;html=1;" parent="D_RvipE9MuVCgFJKUWL3-17" vertex="1">
          <mxGeometry x="260" y="20" width="60" height="40" as="geometry" />
        </mxCell>
        <mxCell id="VFdJ2LiCn9Vjgm2zUdr--22" value="ZNS" style="rounded=1;whiteSpace=wrap;html=1;" parent="D_RvipE9MuVCgFJKUWL3-17" vertex="1">
          <mxGeometry x="420" y="20" width="60" height="40" as="geometry" />
        </mxCell>
        <mxCell id="VFdJ2LiCn9Vjgm2zUdr--24" value="LAS" style="rounded=1;whiteSpace=wrap;html=1;" parent="D_RvipE9MuVCgFJKUWL3-17" vertex="1">
          <mxGeometry x="500" y="20" width="60" height="40" as="geometry" />
        </mxCell>
        <mxCell id="D_RvipE9MuVCgFJKUWL3-18" value="" style="group" parent="1" vertex="1" connectable="0">
          <mxGeometry x="-310" y="600" width="120" height="80" as="geometry" />
        </mxCell>
        <mxCell id="D_RvipE9MuVCgFJKUWL3-14" value="" style="rounded=1;whiteSpace=wrap;html=1;fillColor=#fad7ac;strokeColor=#b46504;" parent="D_RvipE9MuVCgFJKUWL3-18" vertex="1">
          <mxGeometry width="120" height="80" as="geometry" />
        </mxCell>
        <mxCell id="D_RvipE9MuVCgFJKUWL3-13" value="OCR" style="rounded=1;whiteSpace=wrap;html=1;" parent="D_RvipE9MuVCgFJKUWL3-18" vertex="1">
          <mxGeometry x="30" y="20" width="60" height="40" as="geometry" />
        </mxCell>
        <mxCell id="haynSkEhvxOA1ZDdQ_Df-6" value="" style="group" vertex="1" connectable="0" parent="1">
          <mxGeometry x="-320" y="400" width="140" height="100" as="geometry" />
        </mxCell>
        <mxCell id="D_RvipE9MuVCgFJKUWL3-11" value="" style="rounded=1;whiteSpace=wrap;html=1;fillColor=#fff2cc;strokeColor=#d6b656;" parent="haynSkEhvxOA1ZDdQ_Df-6" vertex="1">
          <mxGeometry width="140" height="100" as="geometry" />
        </mxCell>
        <mxCell id="94nnqqXkDgU59NGb26t2-6" value="STP" style="rounded=1;whiteSpace=wrap;html=1;" parent="haynSkEhvxOA1ZDdQ_Df-6" vertex="1">
          <mxGeometry x="30" y="30" width="80" height="40" as="geometry" />
        </mxCell>
        <mxCell id="haynSkEhvxOA1ZDdQ_Df-11" value="" style="edgeStyle=orthogonalEdgeStyle;rounded=0;orthogonalLoop=1;jettySize=auto;html=1;entryX=0.5;entryY=0;entryDx=0;entryDy=0;" edge="1" parent="1" source="haynSkEhvxOA1ZDdQ_Df-7" target="haynSkEhvxOA1ZDdQ_Df-9">
          <mxGeometry relative="1" as="geometry" />
        </mxCell>
        <mxCell id="haynSkEhvxOA1ZDdQ_Df-15" style="edgeStyle=orthogonalEdgeStyle;rounded=0;orthogonalLoop=1;jettySize=auto;html=1;exitX=0.5;exitY=1;exitDx=0;exitDy=0;entryX=0.5;entryY=0;entryDx=0;entryDy=0;" edge="1" parent="1" source="94nnqqXkDgU59NGb26t2-1" target="D_RvipE9MuVCgFJKUWL3-3">
          <mxGeometry relative="1" as="geometry" />
        </mxCell>
        <mxCell id="haynSkEhvxOA1ZDdQ_Df-16" style="edgeStyle=orthogonalEdgeStyle;rounded=0;orthogonalLoop=1;jettySize=auto;html=1;exitX=0;exitY=0.5;exitDx=0;exitDy=0;entryX=1;entryY=0.5;entryDx=0;entryDy=0;" edge="1" parent="1" source="VFdJ2LiCn9Vjgm2zUdr--12" target="D_RvipE9MuVCgFJKUWL3-11">
          <mxGeometry relative="1" as="geometry">
            <mxPoint x="-180" y="450" as="targetPoint" />
          </mxGeometry>
        </mxCell>
        <mxCell id="haynSkEhvxOA1ZDdQ_Df-17" style="edgeStyle=orthogonalEdgeStyle;rounded=0;orthogonalLoop=1;jettySize=auto;html=1;exitX=0.5;exitY=1;exitDx=0;exitDy=0;entryX=0.5;entryY=0;entryDx=0;entryDy=0;" edge="1" parent="1" source="D_RvipE9MuVCgFJKUWL3-11" target="D_RvipE9MuVCgFJKUWL3-14">
          <mxGeometry relative="1" as="geometry" />
        </mxCell>
        <mxCell id="haynSkEhvxOA1ZDdQ_Df-18" style="edgeStyle=orthogonalEdgeStyle;rounded=0;orthogonalLoop=1;jettySize=auto;html=1;exitX=0.5;exitY=1;exitDx=0;exitDy=0;entryX=0.5;entryY=0;entryDx=0;entryDy=0;" edge="1" parent="1" source="D_RvipE9MuVCgFJKUWL3-3" target="D_RvipE9MuVCgFJKUWL3-6">
          <mxGeometry relative="1" as="geometry" />
        </mxCell>
        <mxCell id="haynSkEhvxOA1ZDdQ_Df-7" value="" style="rounded=1;whiteSpace=wrap;html=1;fillColor=#fff2cc;strokeColor=#d6b656;" vertex="1" parent="1">
          <mxGeometry x="953.5" y="290" width="123" height="80" as="geometry" />
        </mxCell>
        <mxCell id="VFdJ2LiCn9Vjgm2zUdr--8" value="MED" style="rounded=1;whiteSpace=wrap;html=1;" parent="1" vertex="1">
          <mxGeometry x="988.5" y="310" width="53" height="40" as="geometry" />
        </mxCell>
        <mxCell id="haynSkEhvxOA1ZDdQ_Df-2" value="" style="rounded=1;whiteSpace=wrap;html=1;fillColor=#ffe6cc;strokeColor=#d79b00;" vertex="1" parent="1">
          <mxGeometry x="556" y="599" width="493" height="80" as="geometry" />
        </mxCell>
        <mxCell id="VFdJ2LiCn9Vjgm2zUdr--28" value="RCS" style="rounded=1;whiteSpace=wrap;html=1;" parent="1" vertex="1">
          <mxGeometry x="736" y="619" width="53" height="40" as="geometry" />
        </mxCell>
        <mxCell id="VFdJ2LiCn9Vjgm2zUdr--29" value="LAS" style="rounded=1;whiteSpace=wrap;html=1;" parent="1" vertex="1">
          <mxGeometry x="896" y="619" width="53" height="40" as="geometry" />
        </mxCell>
        <mxCell id="VFdJ2LiCn9Vjgm2zUdr--30" value="ZNS" style="rounded=1;whiteSpace=wrap;html=1;" parent="1" vertex="1">
          <mxGeometry x="816" y="619" width="53" height="40" as="geometry" />
        </mxCell>
        <mxCell id="VFdJ2LiCn9Vjgm2zUdr--31" value="FILENET" style="rounded=1;whiteSpace=wrap;html=1;" parent="1" vertex="1">
          <mxGeometry x="976" y="619" width="53" height="40" as="geometry" />
        </mxCell>
        <mxCell id="D_RvipE9MuVCgFJKUWL3-8" value="PruOnline" style="rounded=1;whiteSpace=wrap;html=1;" parent="1" vertex="1">
          <mxGeometry x="656" y="619" width="53" height="40" as="geometry" />
        </mxCell>
        <mxCell id="D_RvipE9MuVCgFJKUWL3-9" value="ZALO" style="rounded=1;whiteSpace=wrap;html=1;" parent="1" vertex="1">
          <mxGeometry x="576" y="619" width="53" height="40" as="geometry" />
        </mxCell>
        <mxCell id="haynSkEhvxOA1ZDdQ_Df-1" value="" style="rounded=1;whiteSpace=wrap;html=1;fillColor=#ffe6cc;strokeColor=#d79b00;" vertex="1" parent="1">
          <mxGeometry x="1096" y="599" width="243" height="80" as="geometry" />
        </mxCell>
        <mxCell id="VFdJ2LiCn9Vjgm2zUdr--26" value="" style="edgeStyle=orthogonalEdgeStyle;rounded=0;orthogonalLoop=1;jettySize=auto;html=1;" parent="1" source="VFdJ2LiCn9Vjgm2zUdr--9" target="VFdJ2LiCn9Vjgm2zUdr--25" edge="1">
          <mxGeometry relative="1" as="geometry">
            <Array as="points">
              <mxPoint x="1226" y="649" />
              <mxPoint x="1226" y="649" />
            </Array>
          </mxGeometry>
        </mxCell>
        <mxCell id="VFdJ2LiCn9Vjgm2zUdr--9" value="SFTP" style="rounded=1;whiteSpace=wrap;html=1;" parent="1" vertex="1">
          <mxGeometry x="1116" y="619" width="53" height="40" as="geometry" />
        </mxCell>
        <mxCell id="VFdJ2LiCn9Vjgm2zUdr--27" style="edgeStyle=orthogonalEdgeStyle;rounded=0;orthogonalLoop=1;jettySize=auto;html=1;exitX=0;exitY=0.25;exitDx=0;exitDy=0;entryX=1;entryY=0.25;entryDx=0;entryDy=0;" parent="1" source="VFdJ2LiCn9Vjgm2zUdr--25" target="VFdJ2LiCn9Vjgm2zUdr--9" edge="1">
          <mxGeometry relative="1" as="geometry" />
        </mxCell>
        <mxCell id="VFdJ2LiCn9Vjgm2zUdr--25" value="INSMART" style="rounded=1;whiteSpace=wrap;html=1;" parent="1" vertex="1">
          <mxGeometry x="1266" y="619" width="53" height="40" as="geometry" />
        </mxCell>
      </root>
    </mxGraphModel>
  </diagram>
</mxfile>
